<svg width="55" height="55" viewBox="0 0 55 55" fill="none" xmlns="http://www.w3.org/2000/svg">
<rect x="0.5" y="0.5" width="54" height="54" rx="14.5" fill="white"/>
<rect x="0.5" y="0.5" width="54" height="54" rx="14.5" stroke="white"/>
<path opacity="0.5" d="M35.6552 23.8753V24.7261C35.6552 25.7471 35.9466 26.7453 36.4927 27.5949L37.8308 29.6767C39.0531 31.5783 38.12 34.163 35.9941 34.7643C30.4329 36.3374 24.5671 36.3374 19.0059 34.7643C16.88 34.163 15.9469 31.5783 17.1692 29.6767L18.5073 27.5949C19.0534 26.7453 19.3448 25.7471 19.3448 24.7261V23.8753C19.3448 19.2039 22.996 15.417 27.5 15.417C32.004 15.417 35.6552 19.2039 35.6552 23.8753Z" fill="#F89A21"/>
<path d="M28.4063 20.25C28.4063 19.7495 28.0005 19.3438 27.5 19.3438C26.9995 19.3438 26.5938 19.7495 26.5938 20.25V25.0833C26.5938 25.5838 26.9995 25.9896 27.5 25.9896C28.0005 25.9896 28.4063 25.5838 28.4063 25.0833V20.25Z" fill="#F89A21"/>
<path d="M21.752 35.4082C22.5385 37.8311 24.8145 39.5827 27.4996 39.5827C30.1847 39.5827 32.4606 37.8311 33.2472 35.4082C29.4465 36.1214 25.5527 36.1214 21.752 35.4082Z" fill="#F89A21"/>
</svg>
