<svg width="25" height="24" viewBox="0 0 25 24" fill="none" xmlns="http://www.w3.org/2000/svg">
<g clipPath="url(#clip0_1_46147)">
<path d="M16.9532 0C17.009 0 17.0649 0 17.1239 0C17.2609 1.69253 16.6149 2.95719 15.8297 3.87301C15.0594 4.78251 14.0044 5.6646 12.2982 5.53076C12.1844 3.86247 12.8315 2.69161 13.6155 1.77789C14.3427 0.92636 15.6759 0.168621 16.9532 0Z" fill="black"/>
<path d="M22.1181 17.6164C22.1181 17.6332 22.1181 17.648 22.1181 17.6638C21.6386 19.1161 20.9546 20.3607 20.1199 21.5157C19.358 22.5643 18.4242 23.9755 16.757 23.9755C15.3163 23.9755 14.3594 23.0491 12.8829 23.0238C11.3211 22.9985 10.4622 23.7984 9.03417 23.9997C8.87082 23.9997 8.70747 23.9997 8.54728 23.9997C7.49867 23.848 6.6524 23.0175 6.03588 22.2693C4.21794 20.0582 2.81312 17.2022 2.55176 13.5474C2.55176 13.189 2.55176 12.8318 2.55176 12.4735C2.66242 9.85772 3.93339 7.73099 5.62276 6.7003C6.51435 6.15228 7.74001 5.68541 9.10478 5.89408C9.68968 5.98471 10.2872 6.18495 10.811 6.38308C11.3074 6.57383 11.9281 6.91213 12.5162 6.89421C12.9146 6.88262 13.3108 6.67501 13.7123 6.52852C14.8885 6.1038 16.0414 5.61691 17.5611 5.8456C19.3875 6.12172 20.6838 6.93321 21.4847 8.18521C19.9397 9.16848 18.7183 10.6502 18.9269 13.1806C19.1124 15.4791 20.4487 16.8239 22.1181 17.6164Z" fill="black"/>
</g>
<defs>
<clipPath id="clip0_1_46147">
<rect width="24" height="24" fill="white" transform="translate(0.333984)"/>
</clipPath>
</defs>
</svg>
