<svg width="29" height="29" viewBox="0 0 29 29" fill="none" xmlns="http://www.w3.org/2000/svg">
<path opacity="0.5" d="M22.6552 10.8753V11.7261C22.6552 12.7471 22.9466 13.7453 23.4927 14.5949L24.8308 16.6767C26.0531 18.5783 25.12 21.163 22.9941 21.7643C17.4329 23.3374 11.5671 23.3374 6.00585 21.7643C3.88001 21.163 2.94691 18.5783 4.16918 16.6767L5.50734 14.5949C6.05341 13.7453 6.3448 12.7471 6.3448 11.7261V10.8753C6.3448 6.20392 9.99601 2.41699 14.5 2.41699C19.004 2.41699 22.6552 6.20392 22.6552 10.8753Z" fill="#F89A21"/>
<path d="M15.4063 7.25C15.4063 6.74949 15.0005 6.34375 14.5 6.34375C13.9995 6.34375 13.5938 6.74949 13.5938 7.25V12.0833C13.5938 12.5838 13.9995 12.9896 14.5 12.9896C15.0005 12.9896 15.4063 12.5838 15.4063 12.0833V7.25Z" fill="#F89A21"/>
<path d="M8.75195 22.4082C9.5385 24.8311 11.8145 26.5827 14.4996 26.5827C17.1847 26.5827 19.4606 24.8311 20.2472 22.4082C16.4465 23.1214 12.5527 23.1214 8.75195 22.4082Z" fill="#F89A21"/>
</svg>
