<svg width="25" height="25" viewBox="0 0 25 25" fill="none" xmlns="http://www.w3.org/2000/svg">
<g id="Outline / Time / Calendar">
<g id="Union">
<path d="M17.5 14.5C18.0523 14.5 18.5 14.0523 18.5 13.5C18.5 12.9477 18.0523 12.5 17.5 12.5C16.9477 12.5 16.5 12.9477 16.5 13.5C16.5 14.0523 16.9477 14.5 17.5 14.5Z" fill="#141522"/>
<path d="M17.5 18.5C18.0523 18.5 18.5 18.0523 18.5 17.5C18.5 16.9477 18.0523 16.5 17.5 16.5C16.9477 16.5 16.5 16.9477 16.5 17.5C16.5 18.0523 16.9477 18.5 17.5 18.5Z" fill="#141522"/>
<path d="M13.5 13.5C13.5 14.0523 13.0523 14.5 12.5 14.5C11.9477 14.5 11.5 14.0523 11.5 13.5C11.5 12.9477 11.9477 12.5 12.5 12.5C13.0523 12.5 13.5 12.9477 13.5 13.5Z" fill="#141522"/>
<path d="M13.5 17.5C13.5 18.0523 13.0523 18.5 12.5 18.5C11.9477 18.5 11.5 18.0523 11.5 17.5C11.5 16.9477 11.9477 16.5 12.5 16.5C13.0523 16.5 13.5 16.9477 13.5 17.5Z" fill="#141522"/>
<path d="M7.5 14.5C8.05229 14.5 8.5 14.0523 8.5 13.5C8.5 12.9477 8.05229 12.5 7.5 12.5C6.94772 12.5 6.5 12.9477 6.5 13.5C6.5 14.0523 6.94772 14.5 7.5 14.5Z" fill="#141522"/>
<path d="M7.5 18.5C8.05229 18.5 8.5 18.0523 8.5 17.5C8.5 16.9477 8.05229 16.5 7.5 16.5C6.94772 16.5 6.5 16.9477 6.5 17.5C6.5 18.0523 6.94772 18.5 7.5 18.5Z" fill="#141522"/>
<path fillRule="evenodd" clipRule="evenodd" d="M7.5 2.25C7.91421 2.25 8.25 2.58579 8.25 3V3.76272C8.912 3.74999 9.64133 3.74999 10.4435 3.75H14.5564C15.3586 3.74999 16.088 3.74999 16.75 3.76272V3C16.75 2.58579 17.0858 2.25 17.5 2.25C17.9142 2.25 18.25 2.58579 18.25 3V3.82709C18.5099 3.84691 18.7561 3.87182 18.989 3.90313C20.1614 4.06076 21.1104 4.39288 21.8588 5.14124C22.6071 5.88961 22.9392 6.83855 23.0969 8.01098C23.25 9.15018 23.25 10.6058 23.25 12.4435V14.5564C23.25 16.3941 23.25 17.8498 23.0969 18.989C22.9392 20.1614 22.6071 21.1104 21.8588 21.8588C21.1104 22.6071 20.1614 22.9392 18.989 23.0969C17.8498 23.25 16.3942 23.25 14.5565 23.25H10.4436C8.60585 23.25 7.15018 23.25 6.01098 23.0969C4.83856 22.9392 3.88961 22.6071 3.14124 21.8588C2.39288 21.1104 2.06076 20.1614 1.90314 18.989C1.74997 17.8498 1.74998 16.3942 1.75 14.5564V12.4436C1.74998 10.6058 1.74997 9.15019 1.90314 8.01098C2.06076 6.83855 2.39288 5.88961 3.14124 5.14124C3.88961 4.39288 4.83856 4.06076 6.01098 3.90313C6.2439 3.87182 6.49006 3.84691 6.75 3.82709V3C6.75 2.58579 7.08579 2.25 7.5 2.25ZM6.21085 5.38976C5.20476 5.52502 4.62511 5.77869 4.2019 6.2019C3.77869 6.62511 3.52502 7.20476 3.38976 8.21085C3.36685 8.38123 3.3477 8.56061 3.33168 8.75H21.6683C21.6523 8.56061 21.6331 8.38124 21.6102 8.21085C21.475 7.20476 21.2213 6.62511 20.7981 6.2019C20.3749 5.77869 19.7952 5.52502 18.7892 5.38976C17.7615 5.25159 16.4068 5.25 14.5 5.25H10.5C8.59318 5.25 7.23851 5.25159 6.21085 5.38976ZM3.25 12.5C3.25 11.646 3.25032 10.9027 3.26309 10.25H21.7369C21.7497 10.9027 21.75 11.646 21.75 12.5V14.5C21.75 16.4068 21.7484 17.7615 21.6102 18.7892C21.475 19.7952 21.2213 20.3749 20.7981 20.7981C20.3749 21.2213 19.7952 21.475 18.7892 21.6102C17.7615 21.7484 16.4068 21.75 14.5 21.75H10.5C8.59318 21.75 7.23851 21.7484 6.21085 21.6102C5.20476 21.475 4.62511 21.2213 4.2019 20.7981C3.77869 20.3749 3.52502 19.7952 3.38976 18.7892C3.25159 17.7615 3.25 16.4068 3.25 14.5V12.5Z" fill="#141522"/>
</g>
</g>
</svg>
