<svg width="48" height="47" viewBox="0 0 48 47" fill="none" xmlns="http://www.w3.org/2000/svg">
<path d="M28.1665 7.83301H20.3332C12.9478 7.83301 9.25516 7.83301 6.96083 10.1273C5.3089 11.7793 4.84637 14.1561 4.71687 18.1143H43.7828C43.6533 14.1561 43.1908 11.7793 41.5388 10.1273C39.2445 7.83301 35.5518 7.83301 28.1665 7.83301Z" fill="#1E4C83"/>
<path d="M20.3332 39.1663H28.1665C35.5518 39.1663 39.2445 39.1663 41.5388 36.872C43.8332 34.5777 43.8332 30.885 43.8332 23.4997C43.8332 22.6342 43.8332 21.8195 43.8295 21.0518H4.6702C4.6665 21.8195 4.6665 22.6342 4.6665 23.4997C4.6665 30.885 4.6665 34.5777 6.96083 36.872C9.25516 39.1663 12.9478 39.1663 20.3332 39.1663Z" fill="#1E4C83"/>
<path fillRule="evenodd" clipRule="evenodd" d="M11.0311 31.333C11.0311 30.5218 11.6887 29.8643 12.4998 29.8643H20.3332C21.1443 29.8643 21.8019 30.5218 21.8019 31.333C21.8019 32.1442 21.1443 32.8018 20.3332 32.8018H12.4998C11.6887 32.8018 11.0311 32.1442 11.0311 31.333Z" fill="white"/>
<path fillRule="evenodd" clipRule="evenodd" d="M23.7603 31.333C23.7603 30.5218 24.4178 29.8643 25.229 29.8643H28.1665C28.9777 29.8643 29.6353 30.5218 29.6353 31.333C29.6353 32.1442 28.9777 32.8018 28.1665 32.8018H25.229C24.4178 32.8018 23.7603 32.1442 23.7603 31.333Z" fill="white"/>
</svg>
