<svg width="35" height="36" viewBox="0 0 35 36" fill="none" xmlns="http://www.w3.org/2000/svg">
<path fillRule="evenodd" clipRule="evenodd" d="M19.8753 30.6197L19.0847 31.9554C18.3801 33.1458 16.6199 33.1458 15.9153 31.9554L15.1247 30.6197C14.5115 29.5837 14.2049 29.0658 13.7124 28.7793C13.2199 28.4929 12.5999 28.4822 11.3598 28.4608C9.52909 28.4293 8.3809 28.3171 7.41795 27.9183C5.63129 27.1782 4.21179 25.7587 3.47173 23.972C2.91669 22.632 2.91669 20.9333 2.91669 17.5358V16.0775C2.91669 11.3037 2.91669 8.91684 3.99119 7.16342C4.59243 6.18229 5.41733 5.35738 6.39847 4.75614C8.15189 3.68164 10.5388 3.68164 15.3125 3.68164H19.6875C24.4613 3.68164 26.8481 3.68164 28.6016 4.75614C29.5827 5.35738 30.4076 6.18229 31.0089 7.16342C32.0834 8.91684 32.0834 11.3037 32.0834 16.0775V17.5358C32.0834 20.9333 32.0834 22.632 31.5283 23.972C30.7882 25.7587 29.3687 27.1782 27.5821 27.9183C26.6191 28.3171 25.4709 28.4293 23.6402 28.4608C22.4001 28.4822 21.78 28.4929 21.2876 28.7793C20.7951 29.0658 20.4885 29.5837 19.8753 30.6197ZM11.6667 17.9004C11.0626 17.9004 10.5729 18.3901 10.5729 18.9941C10.5729 19.5982 11.0626 20.0879 11.6667 20.0879H19.6875C20.2916 20.0879 20.7813 19.5982 20.7813 18.9941C20.7813 18.3901 20.2916 17.9004 19.6875 17.9004H11.6667ZM10.5729 13.89C10.5729 13.2859 11.0626 12.7962 11.6667 12.7962H23.3334C23.9374 12.7962 24.4271 13.2859 24.4271 13.89C24.4271 14.494 23.9374 14.9837 23.3334 14.9837H11.6667C11.0626 14.9837 10.5729 14.494 10.5729 13.89Z" fill="#1E4C83"/>
</svg>
