<svg width="25" height="24" viewBox="0 0 25 24" fill="none" xmlns="http://www.w3.org/2000/svg">
<path fillRule="evenodd" clipRule="evenodd" d="M10.9606 1.25H14.0394C15.6427 1.24999 16.8997 1.24999 17.9039 1.34547C18.9274 1.44279 19.7655 1.64457 20.5044 2.09732C21.2781 2.57144 21.9286 3.22194 22.4027 3.99563C22.8554 4.73445 23.0572 5.57256 23.1545 6.59611C23.25 7.60029 23.25 8.85725 23.25 10.4606V11.5278C23.25 12.6691 23.25 13.564 23.2007 14.2868C23.1505 15.0223 23.0468 15.6344 22.8123 16.2004C22.2287 17.6093 21.1093 18.7287 19.7004 19.3123C18.8955 19.6457 17.9786 19.7197 16.7233 19.7413C16.2842 19.7489 16.0061 19.7545 15.7941 19.7779C15.596 19.7999 15.5192 19.832 15.4742 19.8582C15.4268 19.8857 15.3622 19.936 15.2501 20.0898C15.1287 20.2564 14.9916 20.4865 14.7742 20.8539L14.2321 21.7697C13.4585 23.0767 11.5415 23.0767 10.7679 21.7697L10.2258 20.8539C10.0083 20.4865 9.87122 20.2564 9.74985 20.0898C9.63772 19.936 9.57313 19.8857 9.52572 19.8582C9.48078 19.832 9.40399 19.7999 9.20588 19.7779C8.99387 19.7545 8.71575 19.7489 8.27666 19.7413C7.02138 19.7197 6.10454 19.6457 5.29957 19.3123C3.89066 18.7287 2.77128 17.6093 2.18769 16.2004C1.95323 15.6344 1.8495 15.0223 1.79932 14.2868C1.74999 13.564 1.75 12.6691 1.75 11.5278L1.75 10.4606C1.74999 8.85726 1.74999 7.60029 1.84547 6.59611C1.94279 5.57256 2.14457 4.73445 2.59732 3.99563C3.07144 3.22194 3.72194 2.57144 4.49563 2.09732C5.23445 1.64457 6.07256 1.44279 7.09611 1.34547C8.10029 1.24999 9.35726 1.24999 10.9606 1.25ZM7.23809 2.83873C6.32434 2.92561 5.74291 3.09223 5.27938 3.37628C4.70752 3.72672 4.22672 4.20752 3.87628 4.77938C3.59223 5.24291 3.42561 5.82434 3.33873 6.73809C3.25079 7.663 3.25 8.84876 3.25 10.5V11.5C3.25 12.6751 3.25041 13.5189 3.29584 14.1847C3.34081 14.8438 3.42737 15.2736 3.57351 15.6264C4.00486 16.6678 4.83223 17.4951 5.8736 17.9265C6.38923 18.1401 7.04706 18.2199 8.3025 18.2416L8.33432 18.2421C8.73232 18.249 9.08109 18.2549 9.37097 18.287C9.68246 18.3215 9.9871 18.3912 10.2799 18.5615C10.5702 18.7304 10.7795 18.9559 10.9621 19.2063C11.1307 19.4378 11.304 19.7306 11.5004 20.0623L12.0587 21.0057C12.2515 21.3313 12.7485 21.3313 12.9412 21.0057L13.4996 20.0623C13.6959 19.7306 13.8692 19.4378 14.0379 19.2063C14.2204 18.9559 14.4298 18.7304 14.7201 18.5615C15.0129 18.3912 15.3175 18.3215 15.629 18.287C15.9189 18.2549 16.2676 18.249 16.6656 18.2421L16.6975 18.2416C17.9529 18.2199 18.6108 18.1401 19.1264 17.9265C20.1678 17.4951 20.9951 16.6678 21.4265 15.6264C21.5726 15.2736 21.6592 14.8438 21.7042 14.1847C21.7496 13.5189 21.75 12.6751 21.75 11.5V10.5C21.75 8.84876 21.7492 7.663 21.6613 6.73809C21.5744 5.82434 21.4078 5.24291 21.1237 4.77938C20.7733 4.20752 20.2925 3.72672 19.7206 3.37628C19.2571 3.09223 18.6757 2.92561 17.7619 2.83873C16.837 2.75079 15.6512 2.75 14 2.75H11C9.34876 2.75 8.163 2.75079 7.23809 2.83873ZM7.75 9C7.75 8.58579 8.08579 8.25 8.5 8.25H16.5C16.9142 8.25 17.25 8.58579 17.25 9C17.25 9.41421 16.9142 9.75 16.5 9.75H8.5C8.08579 9.75 7.75 9.41421 7.75 9ZM7.75 12.5C7.75 12.0858 8.08579 11.75 8.5 11.75H14C14.4142 11.75 14.75 12.0858 14.75 12.5C14.75 12.9142 14.4142 13.25 14 13.25H8.5C8.08579 13.25 7.75 12.9142 7.75 12.5Z" fill="white"/>
</svg>
