<svg width="48" height="47" viewBox="0 0 48 47" fill="none" xmlns="http://www.w3.org/2000/svg">
<path fillRule="evenodd" clipRule="evenodd" d="M24.3333 43.0837C15.1017 43.0837 10.4858 43.0837 7.61791 40.2157C4.75 37.3478 4.75 32.732 4.75 23.5003C4.75 14.2687 4.75 9.65282 7.61791 6.7849C10.4858 3.91699 15.1017 3.91699 24.3333 3.91699C33.565 3.91699 38.1808 3.91699 41.0488 6.7849C43.9167 9.65282 43.9167 14.2687 43.9167 23.5003C43.9167 32.732 43.9167 37.3478 41.0488 40.2157C38.1808 43.0837 33.565 43.0837 24.3333 43.0837ZM32.2261 17.5659C32.7996 18.1395 32.7996 19.0695 32.2261 19.6431L22.4344 29.4347C21.8608 30.0083 20.9309 30.0083 20.3573 29.4347L16.4406 25.5181C15.867 24.9445 15.867 24.0145 16.4406 23.4409C17.0142 22.8673 17.9441 22.8673 18.5177 23.4409L21.3958 26.319L30.1489 17.5659C30.7225 16.9923 31.6525 16.9923 32.2261 17.5659Z" fill="#1E4C83"/>
</svg>
