<svg width="48" height="47" viewBox="0 0 48 47" fill="none" xmlns="http://www.w3.org/2000/svg">
<path d="M18.7707 3.91699C17.1483 3.91699 15.8332 5.23216 15.8332 6.85449V8.81283C15.8332 10.4352 17.1483 11.7503 18.7707 11.7503H28.5623C30.1847 11.7503 31.4998 10.4352 31.4998 8.81283V6.85449C31.4998 5.23216 30.1847 3.91699 28.5623 3.91699H18.7707Z" fill="#1E4C83"/>
<path fillRule="evenodd" clipRule="evenodd" d="M12.8957 7.90536C10.4323 8.04357 8.87714 8.43612 7.76225 9.551C6.0415 11.2718 6.0415 14.0413 6.0415 19.5803V31.3303C6.0415 36.8693 6.0415 39.6388 7.76225 41.3595C9.483 43.0803 12.2525 43.0803 17.7915 43.0803H29.5415C35.0805 43.0803 37.85 43.0803 39.5708 41.3595C41.2915 39.6388 41.2915 36.8693 41.2915 31.3303V19.5803C41.2915 14.0413 41.2915 11.2718 39.5708 9.551C38.4559 8.43612 36.9007 8.04357 34.4373 7.90536V8.81283C34.4373 12.0575 31.807 14.6878 28.5623 14.6878H18.7707C15.526 14.6878 12.8957 12.0575 12.8957 8.81283V7.90536ZM30.5437 24.5741C31.1367 24.0206 31.1687 23.0912 30.6152 22.4982C30.0618 21.9052 29.1324 21.8731 28.5394 22.4266L21.1487 29.3246L18.7937 27.1266C18.2007 26.5731 17.2712 26.6052 16.7178 27.1982C16.1643 27.7912 16.1963 28.7206 16.7894 29.2741L20.1465 32.4074C20.7108 32.9341 21.5865 32.9341 22.1508 32.4074L30.5437 24.5741Z" fill="#1E4C83"/>
</svg>
