<svg width="180" height="180" viewBox="0 0 180 180" fill="none" xmlns="http://www.w3.org/2000/svg">
<path opacity="0.5" d="M164.583 90.0013C164.583 48.8101 131.191 15.418 89.9993 15.418C48.8081 15.418 15.416 48.8101 15.416 90.0013C15.416 131.193 48.8081 164.585 89.9993 164.585C131.191 164.585 164.583 131.193 164.583 90.0013Z" fill="#1E4C83"/>
<path d="M89.9994 47.1133C93.0887 47.1133 95.5931 49.6177 95.5931 52.707V97.457C95.5931 100.546 93.0887 103.051 89.9994 103.051C86.91 103.051 84.4056 100.546 84.4056 97.457V52.707C84.4056 49.6177 86.91 47.1133 89.9994 47.1133Z" fill="#1E4C83"/>
<path d="M89.9994 127.29C94.1185 127.29 97.4577 123.951 97.4577 119.832C97.4577 115.713 94.1185 112.374 89.9994 112.374C85.8802 112.374 82.541 115.713 82.541 119.832C82.541 123.951 85.8802 127.29 89.9994 127.29Z" fill="#1E4C83"/>
</svg>
