<svg width="18" height="18" viewBox="0 0 18 18" fill="none" xmlns="http://www.w3.org/2000/svg">
<path d="M10.2977 2.63199L11.6177 5.27199C11.7977 5.63949 12.2777 5.99199 12.6827 6.05949L15.0752 6.45699C16.6052 6.71199 16.9652 7.82199 15.8627 8.91699L14.0027 10.777C13.6877 11.092 13.5152 11.6995 13.6127 12.1345L14.1452 14.437C14.5652 16.2595 13.5977 16.9645 11.9852 16.012L9.74268 14.6845C9.33768 14.4445 8.67018 14.4445 8.25768 14.6845L6.01518 16.012C4.41018 16.9645 3.43518 16.252 3.85518 14.437L4.38768 12.1345C4.48518 11.6995 4.31268 11.092 3.99768 10.777L2.13768 8.91699C1.04268 7.82199 1.39518 6.71199 2.92518 6.45699L5.31768 6.05949C5.71518 5.99199 6.19518 5.63949 6.37518 5.27199L7.69518 2.63199C8.41518 1.19949 9.58518 1.19949 10.2977 2.63199Z" fill="#DEA81D"/>
</svg>
