<svg width="25" height="24" viewBox="0 0 25 24" fill="none" xmlns="http://www.w3.org/2000/svg">
<path d="M23.1675 12.2336C23.1675 11.3702 23.0961 10.7402 22.9414 10.0869H12.8818V13.9835H18.7865C18.6675 14.9519 18.0247 16.4102 16.5961 17.3902L16.5761 17.5206L19.7567 19.9354L19.9771 19.9569C22.0008 18.1252 23.1675 15.4302 23.1675 12.2336Z" fill="#4285F4"/>
<path d="M12.881 22.4996C15.7738 22.4996 18.2023 21.5662 19.9762 19.9562L16.5952 17.3895C15.6905 18.0078 14.4762 18.4395 12.881 18.4395C10.0477 18.4395 7.64295 16.6079 6.78573 14.0762L6.66008 14.0866L3.35282 16.595L3.30957 16.7128C5.07145 20.1428 8.69049 22.4996 12.881 22.4996Z" fill="#34A853"/>
<path d="M6.78648 14.0765C6.56029 13.4232 6.42939 12.7231 6.42939 11.9998C6.42939 11.2764 6.56029 10.5765 6.77458 9.92313L6.76859 9.78398L3.41987 7.23535L3.31031 7.28642C2.58415 8.70977 2.16748 10.3081 2.16748 11.9998C2.16748 13.6915 2.58415 15.2897 3.31031 16.7131L6.78648 14.0765Z" fill="#FBBC05"/>
<path d="M12.881 5.55997C14.8929 5.55997 16.25 6.41163 17.0239 7.12335L20.0477 4.23C18.1906 2.53834 15.7739 1.5 12.881 1.5C8.69052 1.5 5.07146 3.85665 3.30957 7.28662L6.77385 9.92332C7.64297 7.39166 10.0477 5.55997 12.881 5.55997Z" fill="#EB4335"/>
</svg>
