<svg width="48" height="48" viewBox="0 0 48 48" fill="none" xmlns="http://www.w3.org/2000/svg">
<path d="M40.1947 32.3525L41.5764 24.363C41.9215 22.3675 40.3869 20.5423 38.364 20.5423H28.2177C27.2121 20.5423 26.4463 19.6397 26.6091 18.6462L27.9068 10.7256C28.1177 9.43884 28.0575 8.12216 27.7301 6.86006C27.4589 5.81454 26.6522 4.97502 25.5913 4.63422L25.3074 4.54302C24.6663 4.33705 23.9665 4.38498 23.362 4.67626C22.6967 4.99688 22.2099 5.58168 22.0295 6.27719L21.0979 9.86849C20.8015 11.0112 20.3697 12.1141 19.8131 13.1563C18.9997 14.679 17.742 15.8977 16.4348 17.0241L13.6173 19.4521C12.8229 20.1366 12.4057 21.1618 12.4961 22.2073L14.0865 40.6013C14.2324 42.2884 15.643 43.5837 17.3346 43.5837H26.4381C33.2557 43.5837 39.074 38.8335 40.1947 32.3525Z" fill="#1E4C83"/>
<path fillRule="evenodd" clipRule="evenodd" d="M6.31168 19.0746C7.09749 19.0407 7.77053 19.6319 7.83829 20.4155L9.741 42.4203C9.86323 43.8338 8.74984 45.0521 7.32813 45.0521C5.98899 45.0521 4.90625 43.9657 4.90625 42.6292V20.542C4.90625 19.7555 5.52587 19.1085 6.31168 19.0746Z" fill="#1C274C"/>
</svg>
