<svg width="21" height="20" viewBox="0 0 21 20" fill="none" xmlns="http://www.w3.org/2000/svg">
<g clipPath="url(#clip0_154_48617)">
<path d="M4.875 10C4.875 10.2472 4.80169 10.4889 4.66434 10.6945C4.52699 10.9 4.33176 11.0602 4.10335 11.1549C3.87495 11.2495 3.62361 11.2742 3.38114 11.226C3.13866 11.1778 2.91593 11.0587 2.74112 10.8839C2.5663 10.7091 2.44725 10.4863 2.39902 10.2439C2.35079 10.0014 2.37554 9.75005 2.47015 9.52165C2.56476 9.29324 2.72498 9.09802 2.93054 8.96066C3.1361 8.82331 3.37777 8.75 3.625 8.75C3.95652 8.75 4.27446 8.8817 4.50888 9.11612C4.7433 9.35054 4.875 9.66848 4.875 10ZM3.625 3.75C3.37777 3.75 3.1361 3.82331 2.93054 3.96066C2.72498 4.09801 2.56476 4.29324 2.47015 4.52165C2.37554 4.75005 2.35079 5.00139 2.39902 5.24386C2.44725 5.48634 2.5663 5.70907 2.74112 5.88388C2.91593 6.0587 3.13866 6.17775 3.38114 6.22598C3.62361 6.27421 3.87495 6.24946 4.10335 6.15485C4.33176 6.06024 4.52699 5.90002 4.66434 5.69446C4.80169 5.4889 4.875 5.24723 4.875 5C4.875 4.66848 4.7433 4.35054 4.50888 4.11612C4.27446 3.8817 3.95652 3.75 3.625 3.75ZM3.625 13.75C3.37777 13.75 3.1361 13.8233 2.93054 13.9607C2.72498 14.098 2.56476 14.2932 2.47015 14.5216C2.37554 14.7501 2.35079 15.0014 2.39902 15.2439C2.44725 15.4863 2.5663 15.7091 2.74112 15.8839C2.91593 16.0587 3.13866 16.1778 3.38114 16.226C3.62361 16.2742 3.87495 16.2495 4.10335 16.1549C4.33176 16.0602 4.52699 15.9 4.66434 15.6945C4.80169 15.4889 4.875 15.2472 4.875 15C4.875 14.6685 4.7433 14.3505 4.50888 14.1161C4.27446 13.8817 3.95652 13.75 3.625 13.75ZM17.375 8.75H7.375C7.20924 8.75 7.05027 8.81585 6.93306 8.93306C6.81585 9.05027 6.75 9.20924 6.75 9.375V10.625C6.75 10.7908 6.81585 10.9497 6.93306 11.0669C7.05027 11.1842 7.20924 11.25 7.375 11.25H17.375C17.5408 11.25 17.6997 11.1842 17.8169 11.0669C17.9342 10.9497 18 10.7908 18 10.625V9.375C18 9.20924 17.9342 9.05027 17.8169 8.93306C17.6997 8.81585 17.5408 8.75 17.375 8.75ZM17.375 3.75H7.375C7.20924 3.75 7.05027 3.81585 6.93306 3.93306C6.81585 4.05027 6.75 4.20924 6.75 4.375V5.625C6.75 5.79076 6.81585 5.94973 6.93306 6.06694C7.05027 6.18415 7.20924 6.25 7.375 6.25H17.375C17.5408 6.25 17.6997 6.18415 17.8169 6.06694C17.9342 5.94973 18 5.79076 18 5.625V4.375C18 4.20924 17.9342 4.05027 17.8169 3.93306C17.6997 3.81585 17.5408 3.75 17.375 3.75ZM17.375 13.75H7.375C7.20924 13.75 7.05027 13.8158 6.93306 13.9331C6.81585 14.0503 6.75 14.2092 6.75 14.375V15.625C6.75 15.7908 6.81585 15.9497 6.93306 16.0669C7.05027 16.1842 7.20924 16.25 7.375 16.25H17.375C17.5408 16.25 17.6997 16.1842 17.8169 16.0669C17.9342 15.9497 18 15.7908 18 15.625V14.375C18 14.2092 17.9342 14.0503 17.8169 13.9331C17.6997 13.8158 17.5408 13.75 17.375 13.75Z" fill="#6C7278"/>
</g>
<defs>
<clipPath id="clip0_154_48617">
<rect width="20" height="20" fill="white" transform="translate(0.5)"/>
</clipPath>
</defs>
</svg>
