<svg width="24" height="25" viewBox="0 0 24 25" fill="none" xmlns="http://www.w3.org/2000/svg">
<path fillRule="evenodd" clipRule="evenodd" d="M3.25 10.2136C3.25 5.31458 7.15501 1.32031 12 1.32031C16.845 1.32031 20.75 5.31458 20.75 10.2136C20.75 12.5787 20.076 15.1182 18.8844 17.3122C17.6944 19.5034 15.9556 21.4075 13.7805 22.4242C12.6506 22.9523 11.3494 22.9523 10.2195 22.4242C8.04437 21.4075 6.30562 19.5034 5.11556 17.3122C3.92403 15.1182 3.25 12.5787 3.25 10.2136ZM12 2.82031C8.00843 2.82031 4.75 6.11779 4.75 10.2136C4.75 12.3107 5.35263 14.6057 6.4337 16.5963C7.51624 18.5896 9.04602 20.2199 10.8546 21.0653C11.5821 21.4053 12.4179 21.4053 13.1454 21.0653C14.954 20.2199 16.4838 18.5896 17.5663 16.5963C18.6474 14.6057 19.25 12.3107 19.25 10.2136C19.25 6.11779 15.9916 2.82031 12 2.82031ZM12 7.82031C10.7574 7.82031 9.75 8.82767 9.75 10.0703C9.75 11.313 10.7574 12.3203 12 12.3203C13.2426 12.3203 14.25 11.313 14.25 10.0703C14.25 8.82767 13.2426 7.82031 12 7.82031ZM8.25 10.0703C8.25 7.99924 9.92893 6.32031 12 6.32031C14.0711 6.32031 15.75 7.99924 15.75 10.0703C15.75 12.1414 14.0711 13.8203 12 13.8203C9.92893 13.8203 8.25 12.1414 8.25 10.0703Z" fill="white"/>
</svg>
