<svg width="35" height="36" viewBox="0 0 35 36" fill="none" xmlns="http://www.w3.org/2000/svg">
<path d="M28.5906 7.82422C30.0036 7.82422 31.15 8.99945 31.15 10.4492C31.15 11.275 30.7714 12.0516 30.1262 12.5492L18.5237 21.4742C17.9159 21.9391 17.0841 21.9391 16.4762 21.4742L4.87373 12.5492C4.22924 12.0516 3.84998 11.275 3.84998 10.4492C3.84998 8.99945 4.99583 7.82422 6.40935 7.82422H28.5906ZM15.4525 22.8742C16.6682 23.8094 18.3318 23.8094 19.5475 22.8742L31.15 13.9492V25.3243C31.15 27.2547 29.6197 28.8242 27.7375 28.8242H7.26248C5.3776 28.8242 3.84998 27.2547 3.84998 25.3243V13.9492L15.4525 22.8742Z" fill="#1E4C83"/>
</svg>
