<svg width="36" height="36" viewBox="0 0 36 36" fill="none" xmlns="http://www.w3.org/2000/svg">
<path d="M24.6444 19.7632L23.9802 20.4236C23.9802 20.4236 22.4014 21.9935 18.0921 17.7085C13.7827 13.4236 15.3615 11.8538 15.3615 11.8538L15.7797 11.4379C16.8101 10.4134 16.9073 8.76848 16.0083 7.56765L14.1693 5.11122C13.0567 3.62494 10.9066 3.42861 9.63129 4.69669L7.34229 6.97269C6.70993 7.60147 6.28617 8.41655 6.33755 9.32074C6.46902 11.634 7.51564 16.611 13.3557 22.418C19.549 28.576 25.36 28.8208 27.7362 28.5992C28.4879 28.5292 29.1416 28.1464 29.6683 27.6226L31.7399 25.5627C33.1383 24.1723 32.7441 21.7885 30.9549 20.8159L28.1687 19.3013C26.9939 18.6627 25.5626 18.8503 24.6444 19.7632Z" fill="#1E4C83"/>
</svg>
