<svg width="23" height="22" viewBox="0 0 23 22" fill="none" xmlns="http://www.w3.org/2000/svg">
<path d="M15.2593 12.2464L14.7305 11.7146H14.7305L15.2593 12.2464ZM15.6768 11.8313L16.2056 12.3631L15.6768 11.8313ZM17.8921 11.5409L17.5339 12.1999H17.5339L17.8921 11.5409ZM19.6434 12.493L19.2852 13.1519L19.6434 12.493ZM20.1369 15.4767L20.6657 16.0085L20.1369 15.4767ZM18.8347 16.7715L18.3059 16.2396L18.8347 16.7715ZM17.6202 17.3854L17.6899 18.1321H17.6899L17.6202 17.3854ZM8.58107 13.5L9.10989 12.9682L8.58107 13.5ZM4.16964 5.26746L3.42085 5.31001L3.42085 5.31001L4.16964 5.26746ZM10.1047 6.59825L10.6335 7.13009L10.1047 6.59825ZM10.2484 4.16551L10.8488 3.71604V3.71604L10.2484 4.16551ZM9.09248 2.62148L8.49208 3.07095L8.49208 3.07095L9.09248 2.62148ZM6.23999 2.36091L6.76881 2.89275L6.76881 2.89275L6.23999 2.36091ZM4.80119 3.79154L4.27237 3.2597L4.27237 3.2597L4.80119 3.79154ZM11.5582 10.5398L12.087 10.0079L11.5582 10.5398ZM15.7881 12.7783L16.2056 12.3631L15.148 11.2995L14.7305 11.7146L15.7881 12.7783ZM17.5339 12.1999L19.2852 13.1519L20.0016 11.834L18.2503 10.882L17.5339 12.1999ZM19.608 14.9449L18.3059 16.2396L19.3635 17.3033L20.6657 16.0085L19.608 14.9449ZM17.5506 16.6386C16.2366 16.7611 12.8174 16.6547 9.10989 12.9682L8.05225 14.0318C12.1305 18.0869 16.0166 18.2881 17.6899 18.1321L17.5506 16.6386ZM9.10989 12.9682C5.57224 9.4506 4.99074 6.49731 4.91843 5.2249L3.42085 5.31001C3.5138 6.94566 4.24806 10.2492 8.05225 14.0318L9.10989 12.9682ZM10.3706 7.39151L10.6335 7.13009L9.5759 6.06642L9.31299 6.32784L10.3706 7.39151ZM10.8488 3.71604L9.69287 2.172L8.49208 3.07095L9.64798 4.61498L10.8488 3.71604ZM5.71117 1.82907L4.27237 3.2597L5.33001 4.32338L6.76881 2.89275L5.71117 1.82907ZM9.8418 6.85967C9.31299 6.32784 9.31227 6.32855 9.31156 6.32926C9.31131 6.32951 9.31059 6.33023 9.3101 6.33072C9.30912 6.3317 9.30813 6.33271 9.30712 6.33373C9.3051 6.33578 9.30302 6.33792 9.30088 6.34014C9.2966 6.34459 9.29208 6.34938 9.28734 6.35453C9.27786 6.36482 9.2675 6.37653 9.25647 6.38971C9.2344 6.41604 9.20955 6.44827 9.18355 6.48665C9.1314 6.56361 9.07498 6.66478 9.02723 6.7915C8.92972 7.05032 8.87855 7.38876 8.94308 7.80469C9.06909 8.61694 9.62601 9.67623 11.0294 11.0716L12.087 10.0079C10.7816 8.70996 10.4803 7.9292 10.4253 7.57474C10.3994 7.40732 10.427 7.33073 10.4309 7.32037C10.4339 7.31251 10.4338 7.31554 10.4254 7.32802C10.4212 7.33415 10.415 7.34255 10.4062 7.35312C10.4017 7.35841 10.3966 7.36425 10.3907 7.37065C10.3878 7.37384 10.3847 7.37718 10.3813 7.38066C10.3796 7.3824 10.3779 7.38417 10.3761 7.38598C10.3752 7.38688 10.3743 7.3878 10.3734 7.38872C10.373 7.38918 10.3723 7.38988 10.372 7.39011C10.3713 7.39081 10.3706 7.39151 9.8418 6.85967ZM11.0294 11.0716C12.4332 12.4675 13.4974 13.0197 14.3108 13.1445C14.727 13.2083 15.0652 13.1577 15.3237 13.0613C15.4504 13.0141 15.5517 12.9583 15.6288 12.9067C15.6672 12.8809 15.6996 12.8563 15.726 12.8344C15.7392 12.8234 15.751 12.8132 15.7613 12.8037C15.7665 12.799 15.7713 12.7945 15.7758 12.7903C15.778 12.7882 15.7801 12.7861 15.7822 12.7841C15.7832 12.7831 15.7842 12.7821 15.7852 12.7811C15.7857 12.7806 15.7865 12.7799 15.7867 12.7797C15.7874 12.779 15.7881 12.7783 15.2593 12.2464C14.7305 11.7146 14.7312 11.7139 14.7319 11.7132C14.7321 11.713 14.7328 11.7123 14.7333 11.7118C14.7342 11.7109 14.7352 11.71 14.7361 11.7091C14.7379 11.7073 14.7397 11.7056 14.7414 11.704C14.7449 11.7006 14.7483 11.6975 14.7515 11.6946C14.7579 11.6888 14.7637 11.6837 14.769 11.6793C14.7796 11.6705 14.788 11.6645 14.794 11.6604C14.8063 11.6522 14.8088 11.6525 14.8001 11.6557C14.788 11.6602 14.7088 11.6879 14.5382 11.6618C14.1783 11.6066 13.3919 11.3054 12.087 10.0079L11.0294 11.0716ZM9.69287 2.172C8.73714 0.89535 6.85563 0.691114 5.71117 1.82907L6.76881 2.89275C7.22762 2.43654 8.04903 2.47913 8.49208 3.07095L9.69287 2.172ZM4.91843 5.2249C4.9017 4.93045 5.03622 4.6155 5.33001 4.32338L4.27237 3.2597C3.77118 3.75804 3.37298 4.46777 3.42085 5.31001L4.91843 5.2249ZM18.3059 16.2396C18.0611 16.483 17.8039 16.615 17.5506 16.6386L17.6899 18.1321C18.3815 18.0677 18.946 17.7184 19.3635 17.3033L18.3059 16.2396ZM10.6335 7.13009C11.5592 6.20972 11.6268 4.7553 10.8488 3.71604L9.64798 4.61498C10.0001 5.08534 9.94562 5.69879 9.5759 6.06642L10.6335 7.13009ZM19.2852 13.1519C20.0007 13.5409 20.1056 14.4501 19.608 14.9449L20.6657 16.0085C21.9261 14.7553 21.5353 12.6678 20.0016 11.834L19.2852 13.1519ZM16.2056 12.3631C16.5372 12.0335 17.0735 11.9496 17.5339 12.1999L18.2503 10.882C17.2338 10.3294 15.9707 10.4814 15.148 11.2995L16.2056 12.3631Z" fill="#1E4C83"/>
</svg>
