<svg width="43" height="48" viewBox="0 0 43 48" fill="none" xmlns="http://www.w3.org/2000/svg">
<path d="M22.9 34.76V30.36C24.66 29.9333 26.02 29.16 26.98 28.04C27.94 26.8667 28.5267 25.4533 28.74 23.8H24.5V13.4H33.7V20.2C33.7 24.0933 32.7933 27.32 30.98 29.88C29.1667 32.3867 26.4733 34.0133 22.9 34.76ZM8.1 34.76V30.36C9.86 29.9333 11.22 29.16 12.18 28.04C13.14 26.8667 13.7267 25.4533 13.94 23.8H9.7V13.4H18.9V20.2C18.9 24.0933 17.9933 27.32 16.18 29.88C14.3667 32.3867 11.6733 34.0133 8.1 34.76Z" fill="#4674AB"/>
</svg>
