<svg width="23" height="22" viewBox="0 0 23 22" fill="none" xmlns="http://www.w3.org/2000/svg">
<path d="M6 9.16732V7.33398C6 4.29982 6.91667 1.83398 11.5 1.83398C16.0833 1.83398 17 4.29982 17 7.33398V9.16732" stroke="#1E4C83" strokeWidth="1.5" strokeLinecap="round" strokeLinejoin="round"/>
<path d="M11.4997 16.9583C12.7653 16.9583 13.7913 15.9323 13.7913 14.6667C13.7913 13.401 12.7653 12.375 11.4997 12.375C10.234 12.375 9.20801 13.401 9.20801 14.6667C9.20801 15.9323 10.234 16.9583 11.4997 16.9583Z" stroke="#1E4C83" strokeWidth="1.5" strokeLinecap="round" strokeLinejoin="round"/>
<path d="M16.083 20.166H6.91634C3.24967 20.166 2.33301 19.2493 2.33301 15.5827V13.7493C2.33301 10.0827 3.24967 9.16602 6.91634 9.16602H16.083C19.7497 9.16602 20.6663 10.0827 20.6663 13.7493V15.5827C20.6663 19.2493 19.7497 20.166 16.083 20.166Z" stroke="#1E4C83" strokeWidth="1.5" strokeLinecap="round" strokeLinejoin="round"/>
</svg>
