<svg width="31" height="30" viewBox="0 0 31 30" fill="none" xmlns="http://www.w3.org/2000/svg">
<path fillRule="evenodd" clipRule="evenodd" d="M15.8682 2.5C14.4759 2.5 13.2079 3.25088 10.672 4.75264L9.81432 5.26057C7.27842 6.76233 6.01047 7.51321 5.31432 8.75C4.61816 9.98679 4.61816 11.4885 4.61816 14.4921V15.5079C4.61816 18.5115 4.61816 20.0132 5.31432 21.25C6.01047 22.4868 7.27842 23.2377 9.81432 24.7394L10.672 25.2474C13.2079 26.7491 14.4759 27.5 15.8682 27.5C17.2605 27.5 18.5284 26.7491 21.0643 25.2474L21.922 24.7394C24.4579 23.2377 25.7259 22.4868 26.422 21.25C27.1182 20.0132 27.1182 18.5115 27.1182 15.5079V14.4921C27.1182 11.4885 27.1182 9.98679 26.422 8.75C25.7259 7.51321 24.4579 6.76233 21.922 5.26057L21.0643 4.75264C18.5284 3.25088 17.2605 2.5 15.8682 2.5ZM11.1807 15C11.1807 12.4112 13.2793 10.3125 15.8682 10.3125C18.457 10.3125 20.5557 12.4112 20.5557 15C20.5557 17.5888 18.457 19.6875 15.8682 19.6875C13.2793 19.6875 11.1807 17.5888 11.1807 15Z" fill="#1E4C83"/>
</svg>
