<svg width="30" height="30" viewBox="0 0 30 30" fill="none" xmlns="http://www.w3.org/2000/svg">
<path d="M11.4419 6.76047C13.0253 3.92016 13.8169 2.5 15.0005 2.5C16.1841 2.5 16.9757 3.92016 18.559 6.76047L18.9687 7.49529C19.4186 8.30242 19.6435 8.70598 19.9943 8.97226C20.3451 9.23853 20.7819 9.33738 21.6556 9.53506L22.4511 9.71504C25.5257 10.4107 27.063 10.7585 27.4287 11.9347C27.7945 13.1108 26.7464 14.3363 24.6504 16.7874L24.1081 17.4215C23.5125 18.118 23.2146 18.4663 23.0807 18.8971C22.9467 19.328 22.9917 19.7926 23.0818 20.7219L23.1637 21.568C23.4806 24.8382 23.6391 26.4734 22.6816 27.2003C21.724 27.9272 20.2846 27.2644 17.4059 25.939L16.6611 25.596C15.8431 25.2194 15.4341 25.0311 15.0005 25.0311C14.5669 25.0311 14.1579 25.2194 13.3398 25.596L12.5951 25.939C9.71633 27.2644 8.27696 27.9272 7.31942 27.2003C6.36189 26.4734 6.52034 24.8382 6.83723 21.568L6.91922 20.7219C7.00927 19.7926 7.0543 19.328 6.92032 18.8971C6.78634 18.4663 6.48852 18.118 5.89289 17.4215L5.35061 16.7874C3.25455 14.3363 2.20652 13.1108 2.57226 11.9347C2.93801 10.7585 4.47531 10.4107 7.54991 9.71504L8.34535 9.53506C9.21905 9.33738 9.6559 9.23853 10.0067 8.97226C10.3574 8.70598 10.5824 8.30242 11.0323 7.49529L11.4419 6.76047Z" fill="#1E4C83"/>
</svg>
