<svg width="14" height="14" viewBox="0 0 14 14" fill="none" xmlns="http://www.w3.org/2000/svg">
<path d="M6.52553 1.00898C6.75578 0.468723 7.52156 0.468721 7.75181 1.00897L9.13059 4.24411C9.22695 4.47019 9.43989 4.62491 9.68468 4.64668L13.1875 4.95827C13.7725 5.0103 14.0091 5.7386 13.5665 6.12453L10.9158 8.43554C10.7305 8.59704 10.6492 8.84737 10.7041 9.08691L11.4902 12.5146C11.6215 13.087 11.002 13.5371 10.4981 13.2354L7.48112 11.4286C7.27028 11.3023 7.00706 11.3023 6.79623 11.4286L3.77921 13.2354C3.27538 13.5371 2.65584 13.087 2.78712 12.5146L3.57323 9.08691C3.62817 8.84737 3.54683 8.59704 3.36159 8.43554L0.710857 6.12453C0.268197 5.7386 0.504835 5.0103 1.0898 4.95827L4.59266 4.64668C4.83745 4.62491 5.0504 4.47019 5.14675 4.24411L6.52553 1.00898Z" fill="#FFD166"/>
</svg>
