<svg width="30" height="30" viewBox="0 0 30 30" fill="none" xmlns="http://www.w3.org/2000/svg">
<circle cx="15.0005" cy="7.5" r="5" fill="#1E4C83"/>
<path fillRule="evenodd" clipRule="evenodd" d="M20.6255 27.5C18.5631 27.5 17.5319 27.5 16.8912 26.8593C16.2505 26.2186 16.2505 25.1874 16.2505 23.125C16.2505 21.0626 16.2505 20.0314 16.8912 19.3907C17.5319 18.75 18.5631 18.75 20.6255 18.75C22.6879 18.75 23.7191 18.75 24.3598 19.3907C25.0005 20.0314 25.0005 21.0626 25.0005 23.125C25.0005 25.1874 25.0005 26.2186 24.3598 26.8593C23.7191 27.5 22.6879 27.5 20.6255 27.5ZM23.0855 22.1823C23.3703 21.8975 23.3703 21.4358 23.0855 21.1511C22.8008 20.8663 22.3391 20.8663 22.0543 21.1511L19.6533 23.5521L19.1966 23.0955C18.9119 22.8108 18.4502 22.8108 18.1654 23.0955C17.8807 23.3803 17.8807 23.842 18.1654 24.1267L19.1377 25.0989C19.4224 25.3837 19.8841 25.3837 20.1689 25.0989L23.0855 22.1823Z" fill="#1E4C83"/>
<path d="M19.2689 16.8842C18.0063 16.4803 16.5504 16.25 15.0005 16.25C10.168 16.25 6.25049 18.4886 6.25049 21.25C6.25049 23.9257 9.92854 26.1105 14.5532 26.2436C14.5192 26.0857 14.493 25.929 14.4723 25.7751C14.3752 25.053 14.3754 24.1706 14.3755 23.2324V23.0175C14.3754 22.0793 14.3752 21.197 14.4723 20.4749C14.5804 19.6713 14.8386 18.7917 15.5654 18.0649C16.2922 17.3381 17.1718 17.0798 17.9754 16.9718C18.3653 16.9194 18.802 16.8953 19.2689 16.8842Z" fill="#1E4C83"/>
</svg>
