<svg width="20" height="20" viewBox="0 0 20 20" fill="none" xmlns="http://www.w3.org/2000/svg">
<path d="M11.6673 11.8773V13.619C10.9131 13.3523 10.1059 13.2705 9.31349 13.3805C8.52109 13.4904 7.76665 13.7889 7.11351 14.2508C6.46037 14.7128 5.9276 15.3247 5.55995 16.0352C5.1923 16.7457 5.0005 17.534 5.00065 18.334L3.33398 18.3332C3.33373 17.3156 3.56642 16.3114 4.01423 15.3976C4.46205 14.4839 5.1131 13.6848 5.9175 13.0615C6.7219 12.4383 7.6583 12.0074 8.65495 11.802C9.65159 11.5966 10.682 11.6221 11.6673 11.8765V11.8773ZM10.0007 10.834C7.23815 10.834 5.00065 8.59648 5.00065 5.83398C5.00065 3.07148 7.23815 0.833984 10.0007 0.833984C12.7632 0.833984 15.0007 3.07148 15.0007 5.83398C15.0007 8.59648 12.7632 10.834 10.0007 10.834ZM10.0007 9.16732C11.8423 9.16732 13.334 7.67565 13.334 5.83398C13.334 3.99232 11.8423 2.50065 10.0007 2.50065C8.15898 2.50065 6.66732 3.99232 6.66732 5.83398C6.66732 7.67565 8.15898 9.16732 10.0007 9.16732ZM16.6673 14.1673H19.1673V15.834H16.6673V18.7507L12.5007 15.0007L16.6673 11.2507V14.1673Z" fill="#1E4C83"/>
</svg>
