<svg width="31" height="30" viewBox="0 0 31 30" fill="none" xmlns="http://www.w3.org/2000/svg">
<path d="M20.042 9.375C20.042 11.7912 18.0832 13.75 15.667 13.75C13.2507 13.75 11.292 11.7912 11.292 9.375C11.292 6.95875 13.2507 5 15.667 5C18.0832 5 20.042 6.95875 20.042 9.375Z" fill="#1E4C83"/>
<path d="M23.167 20.625C23.167 23.0412 19.8091 25 15.667 25C11.5249 25 8.16699 23.0412 8.16699 20.625C8.16699 18.2088 11.5249 16.25 15.667 16.25C19.8091 16.25 23.167 18.2088 23.167 20.625Z" fill="#1E4C83"/>
<path d="M9.56955 6.25C9.79138 6.25 10.0079 6.27177 10.2171 6.3132C9.70761 7.21807 9.41699 8.2626 9.41699 9.375C9.41699 10.4603 9.69363 11.481 10.1802 12.3704C9.98255 12.4073 9.77839 12.4266 9.56955 12.4266C7.80153 12.4266 6.36827 11.0439 6.36827 9.33829C6.36827 7.63267 7.80153 6.25 9.56955 6.25Z" fill="#1E4C83"/>
<path d="M7.47616 23.7325C6.76627 22.8838 6.29199 21.8425 6.29199 20.625C6.29199 19.4447 6.73771 18.43 7.41172 17.5959C5.03086 17.7806 3.16699 19.0828 3.16699 20.6617C3.16699 22.2555 5.06362 23.5673 7.47616 23.7325Z" fill="#1E4C83"/>
<path d="M21.9168 9.375C21.9168 10.4603 21.6401 11.481 21.1535 12.3705C21.3512 12.4073 21.5554 12.4266 21.7642 12.4266C23.5322 12.4266 24.9655 11.0439 24.9655 9.33829C24.9655 7.63267 23.5322 6.25 21.7642 6.25C21.5424 6.25 21.3258 6.27177 21.1167 6.3132C21.6261 7.21807 21.9168 8.2626 21.9168 9.375Z" fill="#1E4C83"/>
<path d="M23.8576 23.7325C26.2701 23.5673 28.1668 22.2555 28.1668 20.6617C28.1668 19.0828 26.3029 17.7806 23.922 17.5959C24.596 18.43 25.0418 19.4447 25.0418 20.625C25.0418 21.8425 24.5675 22.8838 23.8576 23.7325Z" fill="#1E4C83"/>
</svg>
