<svg width="26" height="25" viewBox="0 0 26 25" fill="none" xmlns="http://www.w3.org/2000/svg">
<path fillRule="evenodd" clipRule="evenodd" d="M13.0005 7.04339C9.62898 7.04339 6.89584 9.73296 6.89584 13.0507C6.89584 14.7098 7.57817 16.2105 8.68385 17.2985C9.02442 17.6337 9.02442 18.1771 8.68385 18.5122C8.34327 18.8473 7.7911 18.8473 7.45052 18.5122C6.03112 17.1154 5.15165 15.1833 5.15165 13.0507C5.15165 8.78503 8.6657 5.32701 13.0005 5.32701C17.3353 5.32701 20.8493 8.78503 20.8493 13.0507C20.8493 15.1833 19.9699 17.1154 18.5505 18.5122C18.2099 18.8473 17.6577 18.8473 17.3171 18.5122C16.9766 18.1771 16.9766 17.6337 17.3171 17.2985C18.4228 16.2105 19.1051 14.7098 19.1051 13.0507C19.1051 9.73296 16.372 7.04339 13.0005 7.04339Z" fill="#1C274C"/>
<path fillRule="evenodd" clipRule="evenodd" d="M13.0005 2.46638C7.06022 2.46638 2.24467 7.20515 2.24467 13.0507C2.24467 15.9737 3.4476 18.6186 5.39498 20.535C5.73555 20.8701 5.73555 21.4135 5.39498 21.7486C5.05441 22.0838 4.50223 22.0838 4.16165 21.7486C1.90055 19.5236 0.500488 16.4472 0.500488 13.0507C0.500488 6.25722 6.09693 0.75 13.0005 0.75C19.904 0.75 25.5005 6.25722 25.5005 13.0507C25.5005 16.4472 24.1004 19.5236 21.8393 21.7486C21.4988 22.0838 20.9466 22.0838 20.606 21.7486C20.2654 21.4135 20.2654 20.8701 20.606 20.535C22.5534 18.6186 23.7563 15.9737 23.7563 13.0507C23.7563 7.20515 18.9408 2.46638 13.0005 2.46638Z" fill="#1C274C"/>
<path d="M10.8878 18.6801C11.8472 17.5854 12.3269 17.038 12.9192 17.0024C12.9734 16.9992 13.0276 16.9992 13.0818 17.0024C13.6741 17.038 14.1537 17.5854 15.1131 18.6801C17.2006 21.0621 18.2444 22.2531 17.9522 23.2807C17.927 23.369 17.8959 23.4549 17.8589 23.5376C17.4287 24.5 15.9527 24.5 13.0005 24.5C10.0483 24.5 8.57225 24.5 8.1421 23.5376C8.10512 23.4549 8.07393 23.369 8.04881 23.2807C7.75661 22.2531 8.80035 21.0621 10.8878 18.6801Z" fill="#1E4C83"/>
<path d="M16.1255 12.625C16.1255 14.3509 14.7264 15.75 13.0005 15.75C11.2746 15.75 9.87549 14.3509 9.87549 12.625C9.87549 10.8991 11.2746 9.5 13.0005 9.5C14.7264 9.5 16.1255 10.8991 16.1255 12.625Z" fill="#1E4C83"/>
</svg>
