<svg width="31" height="30" viewBox="0 0 31 30" fill="none" xmlns="http://www.w3.org/2000/svg">
<path d="M16.917 19.25C16.917 16.6573 16.917 15.3609 17.7408 14.5555C18.5645 13.75 19.8903 13.75 22.542 13.75C25.1936 13.75 26.5195 13.75 27.3432 14.5555C28.167 15.3609 28.167 16.6573 28.167 19.25V22C28.167 24.5927 28.167 25.8891 27.3432 26.6945C26.5195 27.5 25.1936 27.5 22.542 27.5C19.8903 27.5 18.5645 27.5 17.7408 26.6945C16.917 25.8891 16.917 24.5927 16.917 22V19.25Z" fill="#1E4C83"/>
<path d="M3.16699 10.75C3.16699 13.3427 3.16699 14.6391 3.99075 15.4445C4.81452 16.25 6.14034 16.25 8.79199 16.25C11.4436 16.25 12.7695 16.25 13.5932 15.4445C14.417 14.6391 14.417 13.3427 14.417 10.75V8C14.417 5.40727 14.417 4.11091 13.5932 3.30546C12.7695 2.5 11.4436 2.5 8.79199 2.5C6.14034 2.5 4.81452 2.5 3.99075 3.30546C3.16699 4.11091 3.16699 5.40728 3.16699 8V10.75Z" fill="#1E4C83"/>
<path d="M16.917 6.875C16.917 5.516 16.917 4.83651 17.1311 4.30051C17.4165 3.58584 17.9641 3.01804 18.6532 2.72202C19.1701 2.5 19.8253 2.5 21.1357 2.5H23.9482C25.2587 2.5 25.9139 2.5 26.4308 2.72202C27.1199 3.01804 27.6675 3.58584 27.9529 4.30051C28.167 4.83651 28.167 5.516 28.167 6.875C28.167 8.234 28.167 8.91349 27.9529 9.44949C27.6675 10.1642 27.1199 10.732 26.4308 11.028C25.9139 11.25 25.2587 11.25 23.9482 11.25H21.1357C19.8253 11.25 19.1701 11.25 18.6532 11.028C17.9641 10.732 17.4165 10.1642 17.1311 9.44949C16.917 8.91349 16.917 8.234 16.917 6.875Z" fill="#1E4C83"/>
<path d="M3.16699 23.125C3.16699 24.484 3.16699 25.1635 3.38108 25.6995C3.66653 26.4142 4.21405 26.982 4.90319 27.278C5.42005 27.5 6.07528 27.5 7.38574 27.5H10.1982C11.5087 27.5 12.1639 27.5 12.6808 27.278C13.3699 26.982 13.9175 26.4142 14.2029 25.6995C14.417 25.1635 14.417 24.484 14.417 23.125C14.417 21.766 14.417 21.0865 14.2029 20.5505C13.9175 19.8358 13.3699 19.268 12.6808 18.972C12.1639 18.75 11.5087 18.75 10.1982 18.75H7.38574C6.07528 18.75 5.42005 18.75 4.90319 18.972C4.21405 19.268 3.66653 19.8358 3.38108 20.5505C3.16699 21.0865 3.16699 21.766 3.16699 23.125Z" fill="#1E4C83"/>
</svg>
